#!OML:ASF I:\Actors\actors\Patient Classification 2\Patient 1\Session 1\actor1.ASF
:FULLY-SPECIFIED
:DEGREES
1011
root -0.55958 18.5424 6.44589 -3.71356 -2.56641 -4.3148
lowerback 6.76391 1.77007 3.84918
upperback -1.82916 2.7753 1.24867
thorax -5.58407 1.26052 -1.17436
lowerneck -8.96805 -2.65889 -0.701894
upperneck 24.2921 -3.82956 0.904004
head 9.11384 -1.76242 0.0289307
rclavicle 1.25918e-014 4.32357e-015
rhumerus -60.089 -12.4084 -80.5123
rradius 42.0028
rwrist 1.02087
rhand -12.8433 -34.3457
rfingers 7.12502
rthumb 13.2443 -63.9049
lclavicle 1.25918e-014 4.32357e-015
lhumerus -49.2255 4.28987 90.5478
lradius 43.909
lwrist 8.47215
lhand -13.7987 -17.4028
lfingers 7.12502
lthumb 12.3232 12.2141
rfemur 0 0 0
rtibia 0
rfoot 0 0
rtoes 0
lfemur 0.556762 -0.993847 -11.4185
ltibia 25.2852
lfoot -25.3831 10.856
ltoes -54.9453
1012
root -0.548058 18.5437 6.44533 -3.66347 -2.71586 -4.34327
lowerback 6.70686 1.82 3.70531
upperback -1.85691 2.82334 1.17625
thorax -5.5812 1.28773 -1.17302
lowerneck -9.02763 -2.66301 -0.771132
upperneck 24.3762 -3.86952 1.08857
head 9.16043 -1.76708 0.0977102
rclavicle 1.65799e-014 4.07509e-015
rhumerus -60.085 -12.5255 -80.5864
rradius 41.9251
rwrist 1.33023
rhand -12.7654 -34.4003
rfingers 7.12502
rthumb 13.3193 -63.9546
lclavicle 1.65799e-014 4.07509e-015
lhumerus -49.323 4.30203 90.3372
lradius 43.8374
lwrist 8.30652
lhand -13.7443 -17.4124
lfingers 7.12502
lthumb 12.3756 12.2013
rfemur 0 0 0
rtibia 0
rfoot 0 0
rtoes 0
lfemur 0.558263 -1.20074 -11.4969
ltibia 25.2647
lfoot -25.4918 11.1834
ltoes -54.8041
1013
root -0.537317 18.5454 6.44416 -3.5933 -2.87504 -4.37238
lowerback 6.65093 1.87995 3.606
upperback -1.91175 2.88854 1.08045
thorax -5.60357 1.32067 -1.22321
lowerneck -8.93392 -2.64514 -0.680548
upperneck 24.3397 -3.87949 1.16517
head 9.12998 -1.75668 0.109177
rclavicle 9.10682e-015 -6.36111e-015
rhumerus -60.153 -12.6047 -80.7099
rradius 41.9262
rwrist 1.49744
rhand -12.6115 -34.4868
rfingers 7.12502
rthumb 13.4677 -64.0313
lclavicle 9.10682e-015 -6.36111e-015
lhumerus -49.4398 4.27547 90.0975
lradius 43.7002
lwrist 8.12567
lhand -13.6452 -17.3728
lfingers 7.12502
lthumb 12.4712 12.2351
rfemur 0 0 0
rtibia 0
rfoot 0 0
rtoes 0
lfemur 0.537286 -1.30991 -11.5463
ltibia 25.2447
lfoot -25.586 11.3921
ltoes -54.6653
1014
root -0.527338 18.5488 6.44137 -3.51678 -3.0403 -4.43995
lowerback 6.5937 1.90819 3.51078
upperback -1.93399 2.91441 1.05295
thorax -5.59612 1.33625 -1.19966
lowerneck -8.84009 -2.61573 -0.705029
upperneck 24.2217 -3.86643 1.30955
head 9.07479 -1.73969 0.165986
rclavicle -7.93896e-015 -1.19271e-015
rhumerus -60.1015 -12.5148 -80.8798
rradius 41.9188
rwrist 1.56128
rhand -12.6446 -34.4772
rfingers 7.12502
rthumb 13.4358 -64.0239
lclavicle -7.93896e-015 -1.19271e-015
lhumerus -49.4879 4.48953 89.843
lradius 43.5273
lwrist 7.87207
lhand -13.5153 -17.3302
lfingers 7.12502
lthumb 12.5965 12.27
rfemur 0 0 0
rtibia 0
rfoot 0 0
rtoes 0
lfemur 0.506789 -1.31192 -11.5243
ltibia 25.2201
lfoot -25.6578 11.505
ltoes -54.6399
1015
root -0.519617 18.5534 6.43816 -3.43455 -3.185 -4.46446
lowerback 6.54561 1.91594 3.35279
upperback -1.93107 2.90892 1.05746
thorax -5.57345 1.33966 -1.1043
lowerneck -8.8659 -2.59309 -0.828042
upperneck 24.1335 -3.84344 1.44666
head 9.05426 -1.72655 0.235824
rclavicle 3.71355e-014 -7.95139e-016
rhumerus -59.9833 -12.3702 -81.0261
rradius 41.9388
rwrist 1.59484
rhand -12.7607 -34.5253
rfingers 7.12502
rthumb 13.3239 -64.0793
lclavicle 3.71355e-014 -7.95139e-016
lhumerus -49.4963 4.76737 89.6392
lradius 43.3374
lwrist 7.65322
lhand -13.4219 -17.4512
lfingers 7.12502
lthumb 12.6864 12.1435
rfemur 0 0 0
rtibia 0
rfoot 0 0
rtoes 0
lfemur 0.457042 -1.27412 -11.533
ltibia 25.1988
lfoot -25.6833 11.6039
ltoes -54.6476
1016
root -0.512896 18.5571 6.43319 -3.34882 -3.29439 -4.45398
lowerback 6.49653 1.93659 3.20777
upperback -1.92659 2.92002 1.02816
thorax -5.54552 1.35026 -1.05297
lowerneck -8.93453 -2.58272 -0.864137
upperneck 24.0892 -3.83347 1.49768
head 9.0535 -1.71983 0.259466
rclavicle 4.09993e-015 -5.1684e-015
rhumerus -59.9191 -12.3268 -81.1355
rradius 42.0403
rwrist 1.58713
rhand -12.8228 -34.6019
rfingers 7.12502
rthumb 13.264 -64.1598
lclavicle 4.09993e-015 -5.1684e-015
lhumerus -49.4767 4.85184 89.4952
lradius 43.1292
lwrist 7.51387
lhand -13.4451 -17.6259
lfingers 7.12502
lthumb 12.6641 11.9702
rfemur 0 0 0
rtibia 0
rfoot 0 0
rtoes 0
lfemur 0.378764 -1.27518 -11.5787
ltibia 25.1871
lfoot -25.7082 11.6858
ltoes -54.5888
1017
root -0.507014 18.5584 6.42689 -3.30487 -3.37682 -4.48026
lowerback 6.47653 1.94866 3.13046
upperback -1.91272 2.92668 1.0003
thorax -5.52142 1.3563 -1.03837
lowerneck -8.95475 -2.57032 -0.823625
upperneck 24.0388 -3.81464 1.46599
head 9.038 -1.71115 0.243755
rclavicle 3.52594e-014 -2.5842e-015
rhumerus -59.891 -12.2747 -81.2588
rradius 42.1786
rwrist 1.47638
rhand -12.9011 -34.5681
rfingers 7.12502
rthumb 13.1885 -64.131
lclavicle 3.52594e-014 -2.5842e-015
lhumerus -49.4317 4.8417 89.4004
lradius 42.9693
lwrist 7.43245
lhand -13.4982 -17.5205
lfingers 7.12502
lthumb 12.6129 12.0787
rfemur 0 0 0
rtibia 0
rfoot 0 0
rtoes 0
lfemur 0.333464 -1.30296 -11.5831
ltibia 25.1799
lfoot -25.7364 11.8018
ltoes -54.61
1018
root -0.502267 18.5587 6.4211 -3.29518 -3.47119 -4.5311
lowerback 6.53081 1.94471 3.10911
upperback -1.91989 2.92185 0.995787
thorax -5.56085 1.35375 -1.033
lowerneck -8.92426 -2.54045 -0.751383
upperneck 23.9948 -3.7581 1.35383
head 9.0123 -1.69073 0.200023
rclavicle -1.32937e-015 9.54166e-015
rhumerus -59.9339 -12.1531 -81.3579
rradius 42.3287
rwrist 1.38489
rhand -12.9261 -34.4847
rfingers 7.12502
rthumb 13.1644 -64.0491
lclavicle -1.32937e-015 9.54166e-015
lhumerus -49.436 4.88616 89.3213
lradius 42.835
lwrist 7.32377
lhand -13.4443 -17.4136
lfingers 7.12502
lthumb 12.6649 12.1824
rfemur 0 0 0
rtibia 0
rfoot 0 0
rtoes 0
lfemur 0.331881 -1.30898 -11.558
ltibia 25.1778
lfoot -25.7769 11.9287
ltoes -54.6547
1019
root -0.497904 18.5603 6.41551 -3.29015 -3.57556 -4.5676
lowerback 6.61164 1.94199 3.10955
upperback -1.93978 2.92229 0.995654
thorax -5.62779 1.35249 -1.03715
lowerneck -8.87379 -2.52477 -0.74614
upperneck 23.9592 -3.72901 1.32239
head 8.98933 -1.68081 0.192402
rclavicle 2.76683e-014 -6.36111e-015
rhumerus -59.9992 -12.069 -81.3942
rradius 42.4397
rwrist 1.39831
rhand -12.917 -34.3909
rfingers 7.12502
rthumb 13.1732 -63.9548
lclavicle 2.76683e-014 -6.36111e-015
lhumerus -49.4696 4.96942 89.2433
lradius 42.6895
lwrist 7.18027
lhand -13.3798 -17.5763
lfingers 7.12502
lthumb 12.7271 12.0158
rfemur 0 0 0
rtibia 0
rfoot 0 0
rtoes 0
lfemur 0.339976 -1.33269 -11.5547
ltibia 25.1739
lfoot -25.806 12.0051
ltoes -54.5747
1020
root -0.494 18.5615 6.41027 -3.28105 -3.64106 -4.56615
lowerback 6.6384 1.93663 3.08335
upperback -1.93482 2.9137 0.993835
thorax -5.6393 1.34895 -1.02447
lowerneck -8.85271 -2.53819 -0.819651
upperneck 23.9361 -3.74773 1.37841
head 8.98028 -1.69087 0.222278
rclavicle 4.03781e-015 -3.57812e-015
rhumerus -59.9928 -12.0504 -81.3982
rradius 42.4847
rwrist 1.41194
rhand -12.9212 -34.3036
rfingers 7.12502
rthumb 13.1692 -63.8677
lclavicle 4.03781e-015 -3.57812e-015
lhumerus -49.4695 5.0214 89.2095
lradius 42.6048
lwrist 7.06875
lhand -13.3841 -17.6565
lfingers 7.12502
lthumb 12.723 11.9359
rfemur 0 0 0
rtibia 0
rfoot 0 0
rtoes 0
lfemur 0.34122 -1.40586 -11.5967
ltibia 25.1539
lfoot -25.8224 12.0614
ltoes -54.407
1021
root -0.490885 18.5616 6.40589 -3.27322 -3.65119 -4.51412
lowerback 6.64068 1.92081 3.02946
upperback -1.9221 2.88648 0.9744
thorax -5.6297 1.33731 -1.01143
lowerneck -8.85999 -2.55501 -0.865056
upperneck 23.934 -3.76843 1.39976
head 8.9826 -1.70253 0.234909
rclavicle 1.881e-014 1.98785e-015
rhumerus -59.9685 -12.0389 -81.4172
rradius 42.5254
rwrist 1.36343
rhand -12.8778 -34.3223
rfingers 7.12502
rthumb 13.211 -63.8837
lclavicle 1.881e-014 1.98785e-015
lhumerus -49.4366 5.05529 89.1782
lradius 42.5589
lwrist 6.97859
lhand -13.3294 -17.6355
lfingers 7.12502
lthumb 12.7757 11.9536
rfemur 0 0 0
rtibia 0
rfoot 0 0
rtoes 0
lfemur 0.334205 -1.5139 -11.6925
ltibia 25.1235
lfoot -25.8442 12.147
ltoes -54.2756
1022
root -0.48917 18.5629 6.40172 -3.26421 -3.6613 -4.44749
lowerback 6.65676 1.90697 2.9764
upperback -1.92854 2.86311 0.955047
thorax -5.64793 1.3269 -1.00014
lowerneck -8.83687 -2.55539 -0.876917
upperneck 23.9333 -3.7641 1.38738
head 8.97794 -1.70315 0.233486
rclavicle 1.6114e-014 -1.35174e-014
rhumerus -59.967 -12.0029 -81.4213
rradius 42.5454
rwrist 1.36442
rhand -12.799 -34.3968
rfingers 7.12502
rthumb 13.2869 -63.9533
lclavicle 1.6114e-014 -1.35174e-014
lhumerus -49.4125 5.08373 89.1552
lradius 42.5183
lwrist 6.86958
lhand -13.2526 -17.6503
lfingers 7.12502
lthumb 12.8497 11.9341
rfemur 0 0 0
rtibia 0
rfoot 0 0
rtoes 0
lfemur 0.32461 -1.60492 -11.7968
ltibia 25.097
lfoot -25.8614 12.2437
ltoes -54.2593
